<?xml version="1.0" encoding="UTF-8" standalone="no"?>
<!-- Created with Inkscape (http://www.inkscape.org/) -->
<svg xmlns:dc="http://purl.org/dc/elements/1.1/" xmlns:cc="http://creativecommons.org/ns#" xmlns:rdf="http://www.w3.org/1999/02/22-rdf-syntax-ns#" xmlns:svg="http://www.w3.org/2000/svg" xmlns="http://www.w3.org/2000/svg" xmlns:sodipodi="http://sodipodi.sourceforge.net/DTD/sodipodi-0.dtd" xmlns:inkscape="http://www.inkscape.org/namespaces/inkscape" width="550" height="545" id="svg4300" sodipodi:version="0.32" inkscape:version="0.47 r22583" version="1.0" sodipodi:docname="European_stars.svg" inkscape:output_extension="org.inkscape.output.svg.inkscape">
  <defs id="defs4302">
    <inkscape:perspective sodipodi:type="inkscape:persp3d" inkscape:vp_x="0 : 526.18109 : 1" inkscape:vp_y="0 : 1000 : 0" inkscape:vp_z="744.09448 : 526.18109 : 1" inkscape:persp3d-origin="372.04724 : 350.78739 : 1" id="perspective4308"/>
  </defs>
  <sodipodi:namedview id="base" pagecolor="#ffffff" bordercolor="#666666" borderopacity="1.0" gridtolerance="10000" guidetolerance="10" objecttolerance="10" inkscape:pageopacity="0.0" inkscape:pageshadow="2" inkscape:zoom="1" inkscape:cx="375" inkscape:cy="363.86816" inkscape:document-units="px" inkscape:current-layer="layer1" showgrid="false" inkscape:window-width="1280" inkscape:window-height="968" inkscape:window-x="-4" inkscape:window-y="-4" inkscape:window-maximized="1"/>
  <metadata id="metadata4305">
    <rdf:RDF>
      <cc:Work rdf:about="">
        <dc:format>image/svg+xml</dc:format>
        <dc:type rdf:resource="http://purl.org/dc/dcmitype/StillImage"/>
        <dc:title/>
      </cc:Work>
    </rdf:RDF>
  </metadata>
  <g inkscape:label="Layer 1" inkscape:groupmode="layer" id="layer1" transform="translate(-225.2404,-127.34023)">
    <path style="fill:#ffcc00;fill-opacity:1" d="m 541.17843,95.609847 -14.83236,26.305273 -29.66228,-5.98989 20.46346,22.24878 -14.85025,26.39413 27.49351,-12.56453 20.46343,22.24877 -3.44437,-30.08848 27.40467,-12.58247 -29.57343,-5.97195 -3.46238,-29.999633 z m -128.90784,8.075753 -14.85028,26.39412 -29.66229,-5.98989 20.4635,22.24873 -14.83236,26.30533 27.40469,-12.58241 20.46346,22.24871 -3.46235,-29.99968 27.49355,-12.56448 -29.5735,-5.97195 -3.44442,-30.08848 z m 244.5806,49.38964 -14.85032,26.39411 -29.66227,-5.98988 20.46346,22.24872 -14.83235,26.30533 27.49354,-12.56447 20.46342,22.24871 -3.46235,-29.99969 27.49353,-12.56447 -29.66227,-5.98989 -3.44439,-30.08847 z m -352.28429,22.12366 -14.83234,26.30534 -29.57343,-5.97195 20.37463,22.23075 -14.83239,26.30535 27.49352,-12.56447 20.4635,22.24873 -3.46238,-29.99973 27.49354,-12.56444 -29.6623,-5.98989 -3.46235,-29.99969 z m 423.70874,85.56207 -14.83233,26.30534 -29.57348,-5.97196 20.39261,22.14197 -14.85029,26.39415 27.49347,-12.56448 20.46351,22.24872 -3.46237,-29.99972 27.49349,-12.56445 -29.66228,-5.98989 -3.46233,-29.99968 z m -481.1741,30.11061 -14.8324,26.30533 -29.57344,-5.97194 20.37462,22.23082 -14.83232,26.30535 27.58231,-12.54658 20.37463,22.2308 -3.46231,-29.99968 27.49349,-12.56453 -29.66225,-5.98987 -3.46233,-29.9997 z m 489.2499,98.7972 -14.83234,26.30534 -29.57347,-5.97196 20.37465,22.23084 -14.83236,26.30533 27.4935,-12.56452 20.46347,22.24875 -3.48026,-29.91091 27.51142,-12.6533 -29.66224,-5.98987 -3.46237,-29.9997 z m -481.17417,30.11065 -14.83234,26.30535 -29.57344,-5.97194 20.37464,22.23076 -14.85032,26.39414 27.49352,-12.56447 20.4635,22.24873 -3.44445,-30.08853 27.49354,-12.56444 -29.6623,-5.98988 -3.46235,-29.99972 z m 423.70874,85.56207 -14.83232,26.30536 -29.5735,-5.97196 20.37468,22.23077 -14.8503,26.39415 27.4935,-12.56448 20.4635,22.24873 -3.44443,-30.08852 27.49347,-12.56446 -29.66226,-5.98988 -3.46234,-29.99971 z m -352.17749,22.05282 -14.85029,26.39415 -29.66227,-5.98989 20.4635,22.2487 -14.83236,26.30531 27.49347,-12.56435 20.37468,22.23066 -3.46235,-29.99968 27.49353,-12.56444 -29.57348,-5.97196 -3.44443,-30.0885 z m 244.58061,49.38964 -14.85033,26.39413 -29.66227,-5.98988 20.48138,22.15995 -14.85027,26.39406 27.49352,-12.56436 20.46345,22.24861 -3.44444,-30.08843 27.47561,-12.4757 -29.66227,-5.98989 -3.44438,-30.08849 z m -128.90788,8.07579 -14.85031,26.39413 -29.66229,-5.98988 20.4814,22.15994 -14.85025,26.39416 27.49348,-12.56446 20.46346,22.24869 -3.44437,-30.0885 27.38675,-12.49365 -29.57345,-5.97194 -3.44442,-30.08849 z" id="path3397"/>
  </g>
</svg>