<?xml version="1.0" standalone="no"?>
<!DOCTYPE svg PUBLIC "-//W3C//DTD SVG 20010904//EN"
 "http://www.w3.org/TR/2001/REC-SVG-20010904/DTD/svg10.dtd">
<svg version="1.0" xmlns="http://www.w3.org/2000/svg"
 width="590.000000pt" height="257.000000pt" viewBox="0 0 590.000000 257.000000"
 preserveAspectRatio="xMidYMid meet">

<g transform="translate(0.000000,257.000000) scale(0.100000,-0.100000)"
fill="#000000" stroke="none">
<path d="M3650 1605 l0 -395 25 0 25 0 0 395 0 395 -25 0 -25 0 0 -395z"/>
<path d="M1175 1950 c-4 -6 -4 -21 -1 -33 5 -22 5 -22 -162 -23 -154 0 -173
-2 -245 -27 -102 -35 -178 -74 -256 -132 l-63 -47 -34 33 -34 33 -40 -39 -40
-39 35 -36 35 -36 -36 -49 c-96 -134 -151 -290 -162 -458 l-7 -102 -72 -15
c-39 -8 -74 -18 -77 -21 -11 -11 15 -111 28 -106 35 14 129 28 136 20 4 -4 13
-30 19 -58 18 -73 67 -180 117 -257 61 -91 194 -215 283 -262 39 -20 71 -42
71 -48 0 -6 -20 -48 -45 -94 -25 -45 -45 -86 -45 -91 0 -9 90 -57 95 -51 2 2
27 47 55 102 l53 98 41 -7 c210 -36 387 -15 548 66 l57 29 76 -105 77 -105 44
31 c24 16 44 33 44 36 0 3 -31 48 -70 99 -38 52 -70 97 -70 102 0 4 25 32 56
62 108 106 183 232 231 387 24 78 27 106 28 243 l2 155 71 3 72 3 0 54 0 55
-95 0 c-70 0 -95 3 -95 13 0 23 -71 161 -114 222 -83 115 -219 225 -341 276
l-54 22 -3 51 -3 51 -52 3 c-30 2 -54 -2 -58 -8z m-25 -176 c35 -8 37 -18 16
-136 -31 -169 -105 -267 -223 -293 -47 -10 -127 17 -200 68 -67 46 -213 174
-213 186 0 11 106 84 165 113 137 68 306 91 455 62z m268 -116 c96 -66 203
-196 254 -310 l17 -37 -37 -6 c-338 -53 -488 -126 -548 -270 -19 -45 -18 -148
2 -216 22 -76 93 -206 174 -320 39 -54 70 -102 70 -107 0 -26 -184 -81 -295
-88 -78 -6 -198 6 -213 20 -2 3 15 46 38 97 87 193 131 372 116 470 -10 67
-55 130 -118 165 -48 26 -63 29 -168 32 -99 3 -136 -1 -269 -28 -84 -17 -155
-30 -157 -27 -2 2 1 43 7 92 15 135 68 275 138 364 l18 24 91 -80 c114 -100
189 -151 270 -180 78 -29 135 -29 207 -2 149 56 237 188 267 400 l11 78 41
-21 c23 -11 61 -34 84 -50z m307 -489 c4 -17 7 -77 6 -133 0 -120 -24 -222
-76 -328 -37 -76 -137 -206 -180 -234 -30 -20 -20 -30 -129 131 -110 161 -141
233 -141 321 0 61 4 75 27 106 53 70 189 123 388 153 47 7 88 13 92 14 3 1 9
-13 13 -30z m-910 -209 c23 -11 48 -32 56 -47 22 -41 15 -145 -16 -243 -28
-87 -110 -288 -125 -304 -5 -5 -40 9 -82 34 -95 56 -211 174 -265 271 -43 76
-89 209 -80 232 4 12 121 42 252 66 96 17 215 13 260 -9z"/>
<path d="M1850 1935 l0 -25 110 0 110 0 0 -350 0 -350 25 0 25 0 0 350 0 350
110 0 110 0 0 25 0 25 -245 0 -245 0 0 -25z"/>
<path d="M3437 1949 c-39 -22 -4 -79 35 -58 10 5 18 18 18 29 0 25 -30 41 -53
29z"/>
<path d="M2434 1751 c-109 -27 -177 -132 -178 -271 0 -98 20 -156 73 -211 62
-63 126 -79 221 -55 76 20 110 40 110 65 0 16 -6 15 -57 -11 -50 -26 -67 -29
-123 -26 -49 3 -74 9 -99 27 -41 30 -81 112 -81 169 l0 42 196 0 196 0 -7 58
c-7 61 -35 135 -63 165 -37 42 -125 64 -188 48z m134 -51 c35 -22 65 -77 76
-142 l7 -38 -176 0 c-195 0 -188 -3 -164 71 17 49 53 93 91 112 47 23 125 22
166 -3z"/>
<path d="M3014 1746 c-53 -17 -79 -35 -110 -77 l-24 -33 0 57 c0 54 -1 57 -25
57 l-25 0 0 -395 0 -395 25 0 25 0 0 176 0 177 22 -29 c35 -45 59 -62 106 -74
84 -21 173 14 223 89 40 61 53 111 52 206 0 114 -38 191 -111 229 -42 22 -112
27 -158 12z m142 -47 c20 -12 43 -41 60 -75 24 -49 26 -62 22 -147 -5 -102
-23 -150 -77 -201 -32 -30 -103 -45 -155 -32 -36 9 -84 53 -107 99 -18 34 -20
54 -17 147 3 102 5 111 33 151 17 23 46 50 65 60 48 26 133 25 176 -2z"/>
<path d="M4030 1751 c-140 -29 -217 -166 -189 -334 22 -135 108 -211 239 -211
88 0 150 31 195 96 74 107 65 295 -19 386 -46 51 -147 79 -226 63z m169 -60
c54 -39 81 -109 81 -212 0 -76 -4 -94 -28 -140 -36 -70 -84 -99 -165 -99 -72
0 -113 17 -154 63 -39 44 -53 91 -53 176 0 82 16 133 54 176 48 54 81 66 161
63 55 -2 77 -8 104 -27z"/>
<path d="M4635 1753 c-36 -9 -73 -42 -94 -85 l-21 -43 0 63 c0 59 -1 62 -25
62 l-25 0 0 -270 0 -270 24 0 24 0 4 193 c3 176 5 196 25 234 34 63 68 85 125
81 39 -2 48 0 48 13 0 23 -39 33 -85 22z"/>
<path d="M4930 1744 c-72 -20 -100 -39 -100 -69 l0 -25 45 32 c37 26 57 33
108 36 57 4 66 1 95 -23 34 -29 56 -83 50 -130 -3 -29 -4 -29 -108 -46 -58 -9
-118 -22 -135 -29 -74 -28 -115 -105 -96 -178 36 -133 245 -145 322 -18 l19
31 0 -57 c0 -55 1 -58 25 -58 l25 0 0 180 c0 98 -5 202 -11 230 -14 68 -55
114 -113 129 -55 13 -57 13 -126 -5z m200 -299 c0 -122 -71 -205 -175 -205
-85 0 -124 37 -125 116 0 55 20 87 68 106 30 11 162 35 205 37 26 1 27 0 27
-54z"/>
<path d="M3430 1480 l0 -270 25 0 25 0 0 270 0 270 -25 0 -25 0 0 -270z"/>
</g>
</svg>
